<svg class="svg-icon" style="width: 1em;height: 1em;vertical-align: middle;fill: #D4D4D4;overflow: hidden;" viewBox="0 0 1024 1024" version="1.1" xmlns="http://www.w3.org/2000/svg"><path d="M384 64H256C220.66 64 192 92.66 192 128v128c0 35.34 28.66 64 64 64h128c35.34 0 64-28.66 64-64V128c0-35.34-28.66-64-64-64z m0 320H256c-35.34 0-64 28.66-64 64v128c0 35.34 28.66 64 64 64h128c35.34 0 64-28.66 64-64v-128c0-35.34-28.66-64-64-64z m0 320H256c-35.34 0-64 28.66-64 64v128c0 35.34 28.66 64 64 64h128c35.34 0 64-28.66 64-64v-128c0-35.34-28.66-64-64-64zM768 64h-128c-35.34 0-64 28.66-64 64v128c0 35.34 28.66 64 64 64h128c35.34 0 64-28.66 64-64V128c0-35.34-28.66-64-64-64z m0 320h-128c-35.34 0-64 28.66-64 64v128c0 35.34 28.66 64 64 64h128c35.34 0 64-28.66 64-64v-128c0-35.34-28.66-64-64-64z m0 320h-128c-35.34 0-64 28.66-64 64v128c0 35.34 28.66 64 64 64h128c35.34 0 64-28.66 64-64v-128c0-35.34-28.66-64-64-64z"  /></svg>
